<svg width="81" height="47" viewBox="0 0 81 47" fill="none" xmlns="http://www.w3.org/2000/svg">
<g filter="url(#filter0_d_1_10)">
<ellipse cx="37" cy="16.5" rx="37" ry="16.5" transform="matrix(0.965926 0.258819 -0.26892 0.963162 8.87435 -6)" fill="white"/>
<path d="M75.4327 28.9154C74.8637 30.9535 73.3846 32.6827 71.1221 34.0529C68.8564 35.425 65.8301 36.42 62.2364 36.9849C55.0504 38.1146 45.6912 37.5097 35.8737 34.8791C26.0562 32.2485 17.6856 28.1027 12.0869 23.5474C9.28702 21.2693 7.19893 18.9039 5.96154 16.5932C4.72584 14.2856 4.35109 12.0597 4.92014 10.0216C5.48919 7.98348 6.96822 6.25429 9.23078 4.88408C11.4964 3.51199 14.5227 2.51702 18.1164 1.95208C25.3024 0.822414 34.6616 1.42729 44.4791 4.05789C54.2967 6.68848 62.6672 10.8343 68.266 15.3896C71.0658 17.6677 73.1539 20.0331 74.3913 22.3438C75.627 24.6514 76.0018 26.8773 75.4327 28.9154Z" stroke="black"/>
</g>
<defs>
<filter id="filter0_d_1_10" x="0.159027" y="0.911278" width="80.0348" height="45.1144" filterUnits="userSpaceOnUse" color-interpolation-filters="sRGB">
<feFlood flood-opacity="0" result="BackgroundImageFix"/>
<feColorMatrix in="SourceAlpha" type="matrix" values="0 0 0 0 0 0 0 0 0 0 0 0 0 0 0 0 0 0 127 0" result="hardAlpha"/>
<feOffset dy="4"/>
<feGaussianBlur stdDeviation="2"/>
<feComposite in2="hardAlpha" operator="out"/>
<feColorMatrix type="matrix" values="0 0 0 0 0 0 0 0 0 0 0 0 0 0 0 0 0 0 0.25 0"/>
<feBlend mode="normal" in2="BackgroundImageFix" result="effect1_dropShadow_1_10"/>
<feBlend mode="normal" in="SourceGraphic" in2="effect1_dropShadow_1_10" result="shape"/>
</filter>
</defs>
</svg>
