<svg width="58" height="24" viewBox="0 0 58 24" fill="none" xmlns="http://www.w3.org/2000/svg">
<path d="M3.61965 0.652804L4.10272 7.7538L4.19327 7.77806L8.29835 1.90646L9.27937 2.16932L4.2906 9.11434L3.32468 8.85552L2.63863 0.389941L3.61965 0.652804ZM8.21091 10.1648L9.82442 4.38581L10.7149 4.62441L9.10137 10.4034L8.21091 10.1648ZM10.5461 3.54397C10.3726 3.49746 10.2393 3.39841 10.1465 3.24682C10.0561 3.09591 10.0341 2.93768 10.0803 2.77214C10.1265 2.6066 10.2277 2.48139 10.3839 2.39653C10.5426 2.31235 10.7087 2.29351 10.8823 2.34001C11.0558 2.38652 11.1878 2.48523 11.2781 2.63614C11.371 2.78773 11.3943 2.9463 11.3481 3.11184C11.3019 3.27738 11.1994 3.40225 11.0407 3.48643C10.8846 3.5713 10.7197 3.59047 10.5461 3.54397ZM14.8663 5.73677L14.6562 6.48924L11.6528 5.68448L11.8629 4.93201L14.8663 5.73677ZM13.1248 3.78201L14.0153 4.02061L12.4774 9.5287C12.4074 9.77952 12.3913 9.97741 12.4292 10.1224C12.4704 10.2655 12.5429 10.3739 12.6467 10.4475C12.7537 10.5193 12.8726 10.5728 13.0034 10.6078C13.1015 10.6341 13.1834 10.6506 13.2491 10.6575C13.3155 10.6618 13.3686 10.6652 13.4084 10.6678L13.3668 11.514C13.3002 11.5204 13.2096 11.5203 13.0951 11.5139C12.9799 11.51 12.8394 11.4858 12.6733 11.4414C12.4218 11.374 12.1903 11.254 11.979 11.0814C11.7701 10.9095 11.6173 10.692 11.5204 10.4288C11.4261 10.1663 11.4259 9.86699 11.5197 9.53089L13.1248 3.78201ZM16.2599 12.4671C15.8926 12.3687 15.5786 12.2104 15.3178 11.9922C15.0577 11.7716 14.8763 11.506 14.7738 11.1954C14.6719 10.8824 14.6735 10.5377 14.7786 10.1615C14.871 9.83039 15.0114 9.57953 15.1996 9.40891C15.3885 9.23577 15.6089 9.11958 15.8606 9.06033C16.1124 9.00108 16.3784 8.978 16.6586 8.99108C16.942 9.00233 17.2232 9.02645 17.5022 9.06346C17.867 9.11267 18.1619 9.15531 18.3871 9.19137C18.6154 9.2256 18.788 9.22735 18.9047 9.19662C19.0239 9.16657 19.1035 9.08006 19.1434 8.93709L19.1518 8.90699C19.2555 8.53577 19.2341 8.22003 19.0878 7.95976C18.944 7.70016 18.6671 7.51543 18.2571 7.40557C17.832 7.29166 17.4728 7.29516 17.1794 7.41606C16.8861 7.53697 16.661 7.68962 16.5041 7.87403L15.743 7.34657C15.9919 7.03586 16.2695 6.81638 16.5757 6.68814C16.885 6.55807 17.2003 6.49425 17.5213 6.49671C17.8456 6.49732 18.1536 6.53672 18.4454 6.61491C18.6315 6.66479 18.839 6.74465 19.0679 6.8545C19.3 6.96252 19.5103 7.11458 19.6989 7.31069C19.89 7.50747 20.0228 7.76278 20.0974 8.07662C20.172 8.39045 20.1452 8.77688 20.0171 9.23588L18.954 13.0434L18.0635 12.8048L18.282 12.0222L18.2368 12.0101C18.1414 12.1193 18.0033 12.2266 17.8225 12.3318C17.6417 12.437 17.4204 12.5084 17.1584 12.5461C16.8965 12.5837 16.597 12.5574 16.2599 12.4671ZM16.6184 11.7059C16.9706 11.8002 17.2867 11.8108 17.5667 11.7375C17.8492 11.665 18.0825 11.5361 18.2667 11.3509C18.4534 11.1664 18.5804 10.9537 18.6476 10.7129L18.8745 9.90025C18.8242 9.93529 18.7296 9.95443 18.5908 9.95768C18.4552 9.9591 18.3006 9.95136 18.1269 9.93446C17.9564 9.91573 17.7903 9.89551 17.6288 9.87379C17.4704 9.85023 17.3417 9.83192 17.2426 9.81884C17.0028 9.78693 16.7728 9.77788 16.5527 9.79168C16.3357 9.80365 16.1471 9.85959 15.9867 9.9595C15.8296 10.0576 15.7195 10.2195 15.6564 10.4452C15.5703 10.7537 15.6196 11.0177 15.8044 11.237C15.9924 11.4545 16.2637 11.6108 16.6184 11.7059ZM20.5793 13.4789L22.1928 7.6999L23.0531 7.93041L22.801 8.83338L22.8764 8.8536C23.0833 8.57744 23.3451 8.39014 23.6619 8.2917C23.9794 8.19075 24.3268 8.19082 24.7041 8.29192C25.0864 8.39437 25.3805 8.56617 25.5862 8.80731C25.7952 9.04662 25.9283 9.33974 25.9855 9.68667L26.0459 9.70285C26.2776 9.44414 26.5664 9.26676 26.9123 9.17071C27.2588 9.07216 27.6396 9.07849 28.0546 9.1897C28.5728 9.32855 28.9515 9.6039 29.1907 10.0158C29.4306 10.4251 29.4556 10.9696 29.2658 11.6494L28.1859 15.5171L27.2955 15.2785L28.3754 11.4108C28.4944 10.9844 28.4625 10.6483 28.2797 10.4025C28.0969 10.1567 27.847 9.99137 27.5301 9.90644C27.1226 9.79725 26.7726 9.83557 26.4801 10.0214C26.1883 10.2047 25.9902 10.4832 25.8859 10.8569L24.8354 14.6193L23.9298 14.3767L25.0349 10.4187C25.1267 10.0901 25.0936 9.79682 24.9359 9.53887C24.7788 9.27841 24.5317 9.10302 24.1946 9.01271C23.9632 8.9507 23.7297 8.95419 23.4942 9.02317C23.2611 9.09282 23.0525 9.22025 22.8683 9.40544C22.6874 9.58879 22.5573 9.82219 22.4782 10.1056L21.4697 13.7175L20.5793 13.4789ZM29.8141 15.9533L31.4276 10.1744L32.318 10.413L30.7045 16.1919L29.8141 15.9533ZM32.1493 9.33251C31.9757 9.28601 31.8425 9.18696 31.7496 9.03537C31.6593 8.88446 31.6372 8.72623 31.6835 8.56069C31.7297 8.39514 31.8309 8.26994 31.9871 8.18508C32.1457 8.10089 32.3119 8.08205 32.4854 8.12856C32.659 8.17507 32.7909 8.27378 32.8813 8.42469C32.9741 8.57628 32.9975 8.73484 32.9512 8.90039C32.905 9.06593 32.8026 9.1908 32.6439 9.27498C32.4877 9.35984 32.3228 9.37902 32.1493 9.33251ZM34.1966 13.3911L33.2259 16.8675L32.3355 16.6289L33.949 10.85L34.8093 11.0805L34.5572 11.9834L34.6326 12.0037C34.8504 11.7466 35.1225 11.5661 35.4489 11.4621C35.776 11.3557 36.1584 11.3611 36.5961 11.4784C36.9885 11.5835 37.3095 11.7558 37.5589 11.9952C37.8091 12.2321 37.9708 12.5342 38.044 12.9016C38.1178 13.2664 38.0861 13.6947 37.9489 14.1863L36.9236 17.8583L36.0332 17.6197L37.0416 14.0079C37.1684 13.5539 37.1489 13.1685 36.9832 12.8519C36.8181 12.5327 36.5294 12.3178 36.1168 12.2073C35.8326 12.1311 35.5614 12.1245 35.3032 12.1874C35.0475 12.251 34.8226 12.3835 34.6285 12.5849C34.4344 12.7863 34.2904 13.055 34.1966 13.3911ZM38.7772 18.355L44.1368 12.4637L44.1536 12.4035L40.1692 11.3359L40.4003 10.5081L45.3507 11.8346L45.107 12.7075L39.7582 18.6179L38.7772 18.355ZM45.0547 20.0371L50.4144 14.1458L50.4312 14.0856L46.4468 13.0179L46.6779 12.1902L51.6282 13.5167L51.3845 14.3895L46.0358 20.2999L45.0547 20.0371ZM51.3323 21.7191L56.692 15.8278L56.7088 15.7676L52.7243 14.7L52.9554 13.8723L57.9058 15.1987L57.6621 16.0716L52.3133 21.982L51.3323 21.7191Z" fill="black"/>
</svg>
