<svg width="31" height="17" viewBox="0 0 31 17" fill="none" xmlns="http://www.w3.org/2000/svg">
<path d="M2.3708 9.09432L2.34592 0.805467L3.29675 1.06024L3.21102 7.78272L3.28648 7.80294L6.63222 1.95398L7.6887 2.23706L7.63315 8.96763L7.70861 8.98785L11.0242 3.13079L11.975 3.38557L7.77395 10.5421L6.80802 10.2833L6.7665 3.67228L6.70613 3.6561L3.33673 9.35314L2.3708 9.09432ZM12.7143 11.9953C12.1911 11.8551 11.7657 11.6076 11.4381 11.2529C11.113 10.8989 10.9002 10.4685 10.7998 9.96173C10.702 9.45562 10.7339 8.90341 10.8957 8.3051C11.0589 7.70176 11.3107 7.20442 11.6512 6.81307C11.9942 6.4224 12.3956 6.1552 12.8553 6.01147C13.3175 5.86841 13.8102 5.86698 14.3334 6.00717C14.8566 6.14737 15.2808 6.39447 15.6059 6.74849C15.9335 7.10319 16.1459 7.53485 16.2431 8.04348C16.3428 8.55278 16.3111 9.10909 16.1479 9.71243C15.9862 10.3107 15.7341 10.804 15.3918 11.1921C15.0519 11.581 14.6509 11.8469 14.1887 11.99C13.729 12.1337 13.2375 12.1355 12.7143 11.9953ZM12.9305 11.1959C13.3279 11.3023 13.6825 11.2882 13.9941 11.1533C14.3057 11.0184 14.568 10.8016 14.781 10.5028C14.994 10.2039 15.1528 9.86097 15.2575 9.47383C15.3622 9.08669 15.3981 8.70943 15.3652 8.34206C15.3324 7.97468 15.2155 7.65355 15.0147 7.37866C14.8138 7.10377 14.5147 6.91308 14.1173 6.80659C13.7198 6.7001 13.3649 6.71555 13.0526 6.85294C12.7403 6.99033 12.4773 7.20968 12.2637 7.51101C12.05 7.81233 11.8909 8.15656 11.7862 8.5437C11.6815 8.93084 11.6459 9.30684 11.6795 9.6717C11.713 10.0366 11.8305 10.3552 12.032 10.6276C12.2336 10.8999 12.533 11.0894 12.9305 11.1959ZM16.7323 12.9425L18.2984 7.15047L19.1587 7.38098L18.9221 8.25582L18.9825 8.27199C19.1656 8.01372 19.4197 7.83241 19.7447 7.72806C20.0696 7.62371 20.4057 7.61805 20.7528 7.71106C20.8182 7.72859 20.8996 7.75175 20.997 7.78055C21.0944 7.80935 21.1676 7.833 21.2166 7.85151L20.9719 8.75651C20.9437 8.74088 20.8776 8.71104 20.7735 8.66697C20.6726 8.62106 20.5631 8.58227 20.4449 8.55059C20.1631 8.47511 19.8956 8.46678 19.6423 8.52562C19.3922 8.58262 19.1751 8.697 18.9911 8.86877C18.8103 9.03869 18.6845 9.25438 18.6138 9.51583L17.6228 13.1811L16.7323 12.9425ZM23.6642 6.51768L21.5761 14.2404L20.6857 14.0018L22.7737 6.27909L23.6642 6.51768ZM25.3629 15.3844C24.8799 15.255 24.4865 15.0189 24.1827 14.6759C23.8795 14.3305 23.684 13.9061 23.5962 13.4026C23.5091 12.8967 23.5485 12.3371 23.7144 11.7237C23.8788 11.1153 24.126 10.6154 24.4557 10.2238C24.7855 9.83229 25.1695 9.56448 25.6077 9.42039C26.0459 9.27629 26.509 9.26962 26.997 9.40038C27.3744 9.50148 27.6554 9.6442 27.8403 9.82853C28.0283 10.011 28.1588 10.197 28.2317 10.3863C28.3078 10.5739 28.3649 10.7267 28.4031 10.8448L28.4786 10.865L29.2494 8.01423L30.1399 8.25283L28.0518 15.9755L27.1915 15.745L27.4321 14.8551L27.3265 14.8268C27.2325 14.9148 27.1034 15.0231 26.9392 15.1517C26.7756 15.2777 26.5649 15.3736 26.3071 15.4393C26.0499 15.5025 25.7352 15.4842 25.3629 15.3844ZM25.6998 14.6174C26.0569 14.7131 26.3839 14.7009 26.6808 14.581C26.9783 14.4585 27.236 14.2485 27.454 13.951C27.6727 13.6511 27.8412 13.2824 27.9594 12.845C28.0764 12.4126 28.1158 12.0174 28.0777 11.6594C28.0403 11.2989 27.9228 10.9951 27.7252 10.748C27.5283 10.4985 27.2488 10.3252 26.8865 10.2281C26.5092 10.127 26.1686 10.1395 25.8647 10.2657C25.5641 10.39 25.3063 10.6 25.0915 10.8956C24.8799 11.1894 24.719 11.5399 24.6089 11.9472C24.4974 12.3595 24.459 12.7509 24.4937 13.1214C24.5316 13.4902 24.6482 13.8072 24.8435 14.0725C25.0421 14.336 25.3275 14.5176 25.6998 14.6174Z" fill="black"/>
</svg>
